Patient4_TMGait_0pt6_01_right_27_EMG.mot
version=1
nRows=20
nColumns=33
inDegrees=no
endheader
time	1LAddLong	2LGlutMax	3LGlutMed	4LIliopsoas	5LSemiMemb	6LBicFemLong	7LRecFem	8LVastMed	9LVastLat	10LGasMed	11LTibAnt	12lTibPost	13LPeroneusLong	14LSol	15LExtDigLong	16LFlexDigLong	17RAddLong	18RGlutMax	19RGlutMed	20RIliopsoas	21RSemiMemb	22RBicFemLong	23RRecFem	24RVastMed	25RVastLat	26RGasMed	27RTibAnt	28RTibPost	29RPeroneusLong	30RSol	31RExtDigLong	32RFlexDigLong
32.675	-0.007477	-0.33905	-0.17639	0.006866	0.006409	-0.03479	0.41214	-0.012665	0.19196	-0.017395	-0.092926	0.016327	-0.062256	0.093231	-0.11795	0.007324	0.001221	-1.9653	-1.4186	0.018005	-0.46066	0.06073	-0.14313	-0.29388	0.12955	-0.000153	-0.042267	0.068207	0.70786	0.076447	-0.003662	-0.016479
32.676	-0.005646	-0.32684	-0.15976	-0.012054	0.00473	-0.030518	0.43655	0.000153	0.18204	-0.027161	-0.096588	0.016785	-0.066376	0.10346	-0.12146	0.00061	-0.026398	-2.1103	-1.7075	0.070953	-0.63416	0.000916	0.037079	-0.38284	0.05188	-0.002441	-0.040131	-0.075836	0.40024	0.082245	0.00412	-0.027313
32.677	-0.005188	-0.31387	-0.15869	0.000153	0.010223	-0.040894	0.59174	-0.005188	0.17792	-0.046539	-0.023499	0.019226	-0.057373	0.11765	-0.070953	-0.004272	0.010376	-2.1228	-1.1194	0.02655	-0.62683	-0.029144	0.028992	-0.31403	0.057068	-0.034027	0.021667	-0.074768	-0.46188	0.35675	0.001221	-0.022278
32.678	-0.010681	-0.37399	-0.15808	0.014038	0.007782	-0.054169	0.73563	-0.001984	0.16983	-0.020142	0.087128	0.022736	-0.10315	0.112	-0.010834	-0.010834	0.003052	-1.9395	-0.95673	0.018005	0.14648	-0.12726	0.065918	-0.14496	0.063477	-0.070496	0.001678	-0.024719	-0.26337	0.28381	0.001526	-0.015411
32.679	0.005035	-0.45029	-0.15259	0.000305	0.007782	-0.04364	0.76431	0.014038	0.15854	-0.013733	0.23727	0.030518	-0.17929	0.12695	0.036469	0.021362	0.004883	-1.7628	-1.246	-0.069427	0.37216	-0.1445	0.21454	-0.016327	0.007629	0.006409	0.005798	-0.021973	-0.27008	0.19806	-0.001221	-0.008392
32.68	-0.004272	-0.46646	-0.13534	-0.005341	0.012665	-0.024109	0.75119	0.011139	0.17105	-0.049896	0.28458	0.02182	-0.13458	0.14404	0.36758	0.012054	-0.02533	-1.5504	-0.737	-0.16495	-0.033264	-0.10742	0.36041	0.070343	0.003815	0.06546	0.011292	0.010223	-0.32883	0.30472	-0.007324	-0.014801
32.681	-0.003204	-0.42282	-0.12756	-0.000916	0.005035	-0.032501	0.699	0.017242	0.1915	-0.095062	0.26916	0.022888	-0.002441	0.15747	0.078735	0.005341	-0.052185	-1.4429	0.023804	-0.12009	-0.17685	-0.06134	0.42236	0.18738	0.021973	-0.04303	0.040283	-0.019073	-0.17777	0.10117	-0.002136	-0.014801
32.682	-0.009308	-0.44769	-0.11826	0.002747	0.007324	-0.038605	0.69229	0.0354	0.17456	-0.11276	0.2478	0.017853	0.079651	0.20599	0.20859	0.016022	-0.12665	-1.3809	-0.46448	0.074005	0.2475	-0.005951	0.52002	0.23132	-0.056305	-0.071716	0.010529	-0.038147	0.15045	-0.15152	0.000458	-0.009918
32.683	-0.005188	-0.45868	-0.1294	0.021362	0.00824	-0.030212	0.60684	0.026093	0.159	-0.10696	0.10635	0.024719	0.036163	0.1915	0.39063	0.010529	-0.12024	-1.2929	-0.070343	0.06546	0.48798	-0.10056	0.62408	0.10162	-0.15121	-0.018158	0.013275	-0.034943	0.087738	-0.27527	-0.001831	-0.007019
32.684	-0.005798	-0.42801	-0.10834	0.025787	0.006256	-0.035095	0.6189	0.027466	0.18249	-0.089417	0.072784	0.024414	-0.025482	0.20538	0.48386	0.001221	-0.047913	-1.1378	0.21088	0.067444	0.29419	-0.22644	0.56305	-0.019684	-0.14526	-0.008545	0.023651	-0.11078	-0.057373	-0.21713	-0.001068	-0.001678
32.685	-0.001678	-0.4158	-0.096893	0.006866	0.00412	-0.031433	0.43411	0.012054	0.20477	-0.079041	-0.12543	0.022125	-0.078735	0.22919	0.86365	0.005188	0.001221	-1.0513	0.47577	0.064087	0.22736	-0.37811	0.21423	-0.08316	-0.068359	-0.024872	0.005035	-0.18097	-0.13702	0.047302	-0.000305	0.003967
32.686	0.005341	-0.37964	-0.08728	-0.015259	0.018768	-0.024414	0.059052	0.010376	0.22812	-0.10696	-0.17456	0.022125	-0.02533	0.30731	-0.064392	0.005646	0.073395	-1.0159	0.78568	-0.033722	0.18295	-0.50095	-0.12161	-0.16525	0.215	0.050201	-0.024109	0.001068	0.020447	-0.089111	-0.003052	0.014496
32.687	0.008392	-0.37399	-0.072021	-0.027924	0.007629	-0.005035	-0.41077	0.004425	0.29312	-0.10132	-0.12894	0.018158	0.002747	0.30792	-0.99167	-0.001373	0.13199	-0.99182	0.89477	-0.028534	-0.010834	-0.53162	-0.43182	-0.23911	0.4042	0.058289	-0.026398	0.13153	0.20874	0.014496	-0.001984	0.008392
32.688	0.009766	-0.38834	-0.062561	-0.006561	0.009308	-0.002899	-0.63614	0.005035	0.31403	-0.069275	-0.11856	0.024261	0.00351	0.28076	-1.0695	-0.003357	0.075989	-0.99625	0.58868	-0.035858	-0.35736	-0.48859	-0.31311	-0.094147	0.46829	0.048218	0.001678	0.103	0.2771	-0.19028	-0.002441	-0.000305
32.689	0.009155	-0.34439	-0.083466	0.000916	0.000916	-0.021973	-0.63568	0.010986	0.28809	-0.081024	-0.10788	0.017548	0.020752	0.22278	0.069885	0.000153	0.046844	-0.77423	0.38864	-0.050964	-0.5365	-0.37293	0.012817	0.11429	0.30395	0.066376	-0.000916	0.019379	0.33356	-0.38528	-0.003204	0.000763
32.69	0.000916	-0.28946	-0.08606	0.02243	0.008698	-0.007477	-0.5011	-0.018158	0.29587	-0.079346	-0.15411	0.007324	0.034943	0.10193	-0.19257	-0.00824	-0.022278	-0.66269	0.27512	-0.040894	-0.51926	-0.25314	0.3273	0.094604	0.073242	-0.001678	0.024414	-0.19592	0.083313	-0.10147	-0.001221	-0.002747
32.691	0.000305	-0.30975	-0.06958	0.015717	0.005951	-0.018311	-0.35233	0.006256	0.30121	-0.11322	-0.23605	0.014038	0.04364	0.067902	0.6723	-0.007629	-0.059814	-0.80749	-0.1181	-0.14206	0.007019	-0.17303	0.19928	0.17822	-0.066376	-0.064392	0.031281	0.014801	-0.36987	0.20691	-0.002899	-0.009918
32.692	-0.005798	-0.27313	-0.064697	-0.020752	0.002899	-0.023804	-0.25971	-0.003357	0.3067	-0.14297	-0.27344	0.009155	0.050507	0.14206	0.069122	0.001984	-0.10986	-0.81573	0.00885	-0.094757	0.47043	-0.12421	0.065613	0.2066	-0.24902	-0.049744	0.060883	-0.26459	-0.67154	0.59494	-0.002289	-0.009155
32.693	-0.006256	-0.24506	-0.045624	-0.022583	0	-0.020905	-0.25589	0.004883	0.29785	-0.15381	-0.14862	0.006256	0.052338	0.19333	-0.50079	0.016022	-0.089874	-0.71808	0.38849	-0.074463	0.36636	-0.15274	0.11093	0.10346	-0.37033	-0.029907	0.088654	0.014191	-0.5394	0.38895	-0.001831	-0.010834
32.694	-0.007629	-0.21729	-0.061646	-0.032959	0.002136	-0.028687	-0.27573	0.01358	0.26932	-0.15213	0.045013	0.014648	0.016327	0.14282	-0.50262	0.001984	-0.033569	-0.75302	-0.04837	0.17136	0.074921	-0.17746	0.13886	0.11551	-0.28473	0.015259	0.10834	-0.017548	-0.35721	-0.056152	-0.002136	-0.017395
